<svg xmlns="http://www.w3.org/2000/svg" width="37.244" height="37.245" viewBox="0 0 37.244 37.245">
  <path id="Trazado_18" data-name="Trazado 18" d="M368.887,18.7H335.758a2.058,2.058,0,0,0-2.058,2.058V53.887a2.058,2.058,0,0,0,2.058,2.058H353.59V41.524h-4.851V35.9h4.851V31.759c0-4.812,2.942-7.433,7.23-7.433a41.7,41.7,0,0,1,4.343.219v5.031h-2.981c-2.347,0-2.785,1.111-2.785,2.739V35.9h5.571l-.728,5.626H359.4V55.944h9.491a2.057,2.057,0,0,0,2.058-2.058V20.758a2.057,2.057,0,0,0-2.058-2.058" transform="translate(-333.7 -18.7)" fill="#bcb4b4"/>
</svg>
