<svg id="Grupo_21" data-name="Grupo 21" xmlns="http://www.w3.org/2000/svg" width="37.307" height="37.307" viewBox="0 0 37.307 37.307">
  <path id="Trazado_15" data-name="Trazado 15" d="M37.314,127.067c4.969,0,5.563,0,7.527.11a10.119,10.119,0,0,1,3.458.642,6.189,6.189,0,0,1,3.529,3.529,10.119,10.119,0,0,1,.642,3.458c.094,1.964.11,2.559.11,7.527s0,5.563-.11,7.527a10.119,10.119,0,0,1-.642,3.458,6.189,6.189,0,0,1-3.529,3.529,10.119,10.119,0,0,1-3.458.642c-1.964.094-2.551.11-7.527.11s-5.563,0-7.527-.11a10.119,10.119,0,0,1-3.458-.642,6.189,6.189,0,0,1-3.529-3.529,10.119,10.119,0,0,1-.642-3.458c-.094-1.964-.11-2.559-.11-7.527s0-5.563.11-7.527a10.119,10.119,0,0,1,.642-3.458,6.189,6.189,0,0,1,3.529-3.529,10.119,10.119,0,0,1,3.458-.642c1.964-.094,2.559-.11,7.527-.11m0-3.357c-5.055,0-5.688,0-7.676.11a13.683,13.683,0,0,0-4.523.869,9.465,9.465,0,0,0-5.477,5.477,13.683,13.683,0,0,0-.869,4.523c-.086,1.987-.11,2.621-.11,7.676s0,5.688.11,7.676a13.683,13.683,0,0,0,.869,4.523,9.465,9.465,0,0,0,5.477,5.477,13.683,13.683,0,0,0,4.523.869c1.987.086,2.621.11,7.676.11s5.688,0,7.676-.11a13.683,13.683,0,0,0,4.523-.869,9.465,9.465,0,0,0,5.477-5.477,13.683,13.683,0,0,0,.869-4.523c.086-1.987.11-2.621.11-7.676s0-5.688-.11-7.676a13.683,13.683,0,0,0-.869-4.523,9.465,9.465,0,0,0-5.477-5.477,13.683,13.683,0,0,0-4.523-.869c-1.987-.086-2.621-.11-7.676-.11" transform="translate(-18.66 -123.71)" fill="#bcb4b4"/>
  <path id="Trazado_16" data-name="Trazado 16" d="M39.842,135.28a9.562,9.562,0,1,0,9.562,9.562,9.561,9.561,0,0,0-9.562-9.562m0,15.766a6.2,6.2,0,1,1,6.2-6.2,6.2,6.2,0,0,1-6.2,6.2" transform="translate(-21.188 -126.227)" fill="#bcb4b4"/>
  <path id="Trazado_17" data-name="Trazado 17" d="M54.578,131.94a2.238,2.238,0,1,1-2.238,2.238,2.237,2.237,0,0,1,2.238-2.238" transform="translate(-25.987 -125.5)" fill="#bcb4b4"/>
</svg>
