<svg id="Grupo_7" data-name="Grupo 7" xmlns="http://www.w3.org/2000/svg" xmlns:xlink="http://www.w3.org/1999/xlink" width="79.75" height="31" viewBox="0 0 79.75 31">
  <defs>
    <clipPath id="clip-path">
      <rect id="Rect치ngulo_7" data-name="Rect치ngulo 7" width="79.75" height="31" fill="none"/>
    </clipPath>
  </defs>
  <path id="Trazado_1" data-name="Trazado 1" d="M279.668.791V20.684H277.2V4.127L269.5,12.844l-7.71-8.717V20.684h-2.463V.791h2.8L269.5,9.125,276.866.791Z" transform="translate(-234.495 -0.715)"/>
  <g id="Grupo_6" data-name="Grupo 6">
    <g id="Grupo_5" data-name="Grupo 5" clip-path="url(#clip-path)">
      <path id="Trazado_2" data-name="Trazado 2" d="M344.347,250.378a1.809,1.809,0,0,1-.84,1.507,3.222,3.222,0,0,1-1.933.6,4.448,4.448,0,0,1-2.73-1.067.3.3,0,0,1-.043-.447.309.309,0,0,1,.216-.115.3.3,0,0,1,.235.072,3.667,3.667,0,0,0,2.3.909,2.528,2.528,0,0,0,1.569-.458,1.205,1.205,0,0,0,.584-1.006c0-.718-.739-1.223-2.2-1.5-1.7-.31-2.55-.97-2.55-1.962a1.709,1.709,0,0,1,.779-1.421,3.028,3.028,0,0,1,1.818-.555,2.989,2.989,0,0,1,.927.155,4.762,4.762,0,0,1,.714.3c.166.1.386.231.649.4a.3.3,0,0,1,.086.444.291.291,0,0,1-.184.148.324.324,0,0,1-.252-.058c-.242-.155-.447-.281-.6-.371a3.3,3.3,0,0,0-.6-.256,2.328,2.328,0,0,0-.736-.123,2.413,2.413,0,0,0-1.428.418,1.122,1.122,0,0,0-.53.92c.011.638.692,1.089,2.019,1.342a4.873,4.873,0,0,1,1.9.678,1.658,1.658,0,0,1,.837,1.446" transform="translate(-306.289 -221.484)"/>
      <path id="Trazado_3" data-name="Trazado 3" d="M429.544,246.368a.343.343,0,0,1-.1.242.316.316,0,0,1-.241.108h-2.1v6.4a.345.345,0,0,1-.339.339.335.335,0,0,1-.242-.1.323.323,0,0,1-.1-.238v-6.4h-2.1a.329.329,0,0,1-.242-.108.344.344,0,0,1-.1-.242.333.333,0,0,1,.339-.339H429.2a.339.339,0,0,1,.339.339" transform="translate(-383.401 -222.472)"/>
      <path id="Trazado_4" data-name="Trazado 4" d="M520.964,246.369v4.072a3.022,3.022,0,0,1-6.044,0v-4.072a.332.332,0,0,1,.1-.242.348.348,0,0,1,.483,0,.316.316,0,0,1,.108.242v4.072a2.235,2.235,0,0,0,.682,1.644,2.294,2.294,0,0,0,1.641.689,2.318,2.318,0,0,0,1.662-.689,2.249,2.249,0,0,0,.682-1.644v-4.072a.339.339,0,0,1,.1-.242.348.348,0,0,1,.483,0,.315.315,0,0,1,.108.242" transform="translate(-465.618 -222.473)"/>
      <path id="Trazado_5" data-name="Trazado 5" d="M622.072,247.122a3.6,3.6,0,0,0-2.629-1.093h-1.356a.333.333,0,0,0-.339.339v6.755a.321.321,0,0,0,.094.234.362.362,0,0,0,.224.1h1.378a3.715,3.715,0,0,0,2.629-6.34m-2.629,5.651h-1.006v-6.055h1.006a2.969,2.969,0,0,1,2.142.894,3.024,3.024,0,0,1-2.142,5.161" transform="translate(-558.601 -222.472)"/>
      <path id="Trazado_6" data-name="Trazado 6" d="M711.845,246.369v6.755a.316.316,0,0,1-.108.242.344.344,0,0,1-.483,0,.325.325,0,0,1-.1-.238v-6.755a.333.333,0,0,1,.1-.242.348.348,0,0,1,.483,0,.315.315,0,0,1,.108.242" transform="translate(-643.065 -222.473)"/>
      <path id="Trazado_7" data-name="Trazado 7" d="M761.032,246.037a3.341,3.341,0,0,0-2.524-1.1,3.374,3.374,0,0,0-2.535,1.1,3.792,3.792,0,0,0-.783,1.215,4.009,4.009,0,0,0-.267,1.453,3.774,3.774,0,0,0,1.049,2.669,3.374,3.374,0,0,0,2.535,1.1,3.331,3.331,0,0,0,2.524-1.1,3.933,3.933,0,0,0,0-5.334m-2.535-.4a2.694,2.694,0,0,1,2.027.884,3.1,3.1,0,0,1,.851,2.185,3.142,3.142,0,0,1-.855,2.182,2.748,2.748,0,0,1-4.061,0,3.085,3.085,0,0,1-.851-2.193,3.045,3.045,0,0,1,.851-2.178,2.729,2.729,0,0,1,2.037-.884" transform="translate(-682.641 -221.485)"/>
      <rect id="Rect치ngulo_6" data-name="Rect치ngulo 6" width="2.434" height="19.835" transform="translate(18.19 0.076)"/>
      <path id="Trazado_8" data-name="Trazado 8" d="M694.956,14.306a5.493,5.493,0,0,1-.433,2.182,5.919,5.919,0,0,1-.7,1.219,5.433,5.433,0,0,1-2.254,1.771,5.417,5.417,0,0,1-2.171.436h-7.985v-2.5H689.4a2.971,2.971,0,0,0,1.19-.238,3.054,3.054,0,0,0,.981-.667,3.186,3.186,0,0,0,.664-.981,3.046,3.046,0,0,0,.238-1.2,3.143,3.143,0,0,0-.238-1.212,3.253,3.253,0,0,0-.649-1,2.986,2.986,0,0,0-.981-.664,3.027,3.027,0,0,0-1.2-.234h-3.487a5.461,5.461,0,0,1-2.146-.436A5.852,5.852,0,0,1,681.981,9.6a5.525,5.525,0,0,1-.512-.584,5.689,5.689,0,0,1-.689-5.568,5.755,5.755,0,0,1,.707-1.233,5.125,5.125,0,0,1,.48-.555,5.785,5.785,0,0,1,1.767-1.2A5.27,5.27,0,0,1,685.908,0h7.984V2.5h-7.984a2.817,2.817,0,0,0-1.2.249,3.516,3.516,0,0,0-.959.671,3.157,3.157,0,0,0-.649.97,3.488,3.488,0,0,0-.263,1.2,3.613,3.613,0,0,0,.959,2.229,2.75,2.75,0,0,0,2.113.9H689.4a5.485,5.485,0,0,1,2.174.436,5.528,5.528,0,0,1,2.272,1.778,5.8,5.8,0,0,1,.682,1.186,5.506,5.506,0,0,1,.433,2.182" transform="translate(-615.206)"/>
      <path id="Trazado_9" data-name="Trazado 9" d="M13.985,4.729a6.733,6.733,0,0,0-1.107-1.738c-.086-.1-.184-.206-.277-.3A6.4,6.4,0,0,0,10.545,1.3a6.324,6.324,0,0,0-2.514-.5h-6.4v2.5h6.4a3.636,3.636,0,0,1,1.515.321,4.477,4.477,0,0,1,1.269.851,3.884,3.884,0,0,1,.876,1.251,3.731,3.731,0,0,1,.321,1.525v1.14H6.3a6.2,6.2,0,0,0-2.413.476,6.6,6.6,0,0,0-2.009,1.3c-.13.123-.26.26-.4.418A6.071,6.071,0,0,0,.509,12.09,5.81,5.81,0,0,0,0,14.509a5.737,5.737,0,0,0,.52,2.409,6.015,6.015,0,0,0,2.348,2.7,6.557,6.557,0,0,0,3.549,1l8.093.011V7.236a6.183,6.183,0,0,0-.523-2.506M5.236,11.047a3.859,3.859,0,0,1,1.179-.177h5.6v7.252H6.3a3.809,3.809,0,0,1-1.464-.281,4.1,4.1,0,0,1-1.208-.765,3.622,3.622,0,0,1-.83-1.14A3.349,3.349,0,0,1,2.5,14.509a3.311,3.311,0,0,1,.451-1.7,3.766,3.766,0,0,1,1.266-1.291,4.078,4.078,0,0,1,1.024-.469" transform="translate(0 -0.715)"/>
      <path id="Trazado_10" data-name="Trazado 10" d="M516.549,4.729a6.729,6.729,0,0,0-1.1-1.738c-.086-.1-.177-.2-.281-.3A6.381,6.381,0,0,0,510.6.791h-6.4v2.5h6.4a3.648,3.648,0,0,1,1.515.321,4.479,4.479,0,0,1,1.269.851,3.837,3.837,0,0,1,.873,1.251,3.735,3.735,0,0,1,.321,1.525v1.14h-5.709a6.206,6.206,0,0,0-2.413.476,6.541,6.541,0,0,0-2,1.3c-.13.123-.26.256-.4.418a6.189,6.189,0,0,0-.97,1.518,5.752,5.752,0,0,0-.509,2.42,5.685,5.685,0,0,0,.519,2.409,5.923,5.923,0,0,0,.941,1.5,6.128,6.128,0,0,0,1.4,1.2,6.574,6.574,0,0,0,3.549,1l8.093.011V7.235a6.183,6.183,0,0,0-.523-2.506m-1.973,6.142v7.252h-5.709a3.792,3.792,0,0,1-1.461-.281,4.165,4.165,0,0,1-1.212-.765,3.737,3.737,0,0,1-.829-1.14,3.348,3.348,0,0,1-.3-1.428,3.31,3.31,0,0,1,.451-1.7,3.765,3.765,0,0,1,1.266-1.291,4.072,4.072,0,0,1,1.024-.469,3.818,3.818,0,0,1,1.176-.177Z" transform="translate(-454.448 -0.715)"/>
      <path id="Trazado_11" data-name="Trazado 11" d="M591.8,207.445h-.162a1.13,1.13,0,0,1,.162,0" transform="translate(-534.986 -187.58)"/>
      <path id="Trazado_12" data-name="Trazado 12" d="M330.113,163.118h-8.641l4.234-4.811Z" transform="translate(-290.692 -143.15)" fill="red"/>
    </g>
  </g>
</svg>
