<svg xmlns="http://www.w3.org/2000/svg" width="37.245" height="37.412" viewBox="0 0 37.245 37.412">
  <g id="Grupo_20" data-name="Grupo 20" transform="translate(0 0)">
    <path id="Trazado_13" data-name="Trazado 13" d="M543.7,266.008l2.629-9.608a18.537,18.537,0,1,1,7.206,7.034Zm10.289-5.931.563.329a15.342,15.342,0,1,0-5.235-5.07l.368.579-1.565,5.688Z" transform="translate(-543.7 -228.596)" fill="#bcb4b4"/>
    <path id="Trazado_14" data-name="Trazado 14" d="M574.334,254.35c-.117-.2-.422-.313-.884-.54s-2.746-1.354-3.169-1.51-.735-.235-1.041.235-1.2,1.5-1.471,1.815-.54.344-1,.117a12.694,12.694,0,0,1-3.724-2.3,14.183,14.183,0,0,1-2.582-3.208.672.672,0,0,1,.183-.933l.02-.013c.211-.211.462-.54.7-.782a3.383,3.383,0,0,0,.462-.782.848.848,0,0,0,0-.782c-.117-.227-1.041-2.512-1.424-3.435s-.782-.782-1.048-.782h-.884a1.7,1.7,0,0,0-1.236.579,5.209,5.209,0,0,0-1.62,3.865,9.075,9.075,0,0,0,1.886,4.8c.227.313,3.271,4.984,7.918,7a28.106,28.106,0,0,0,2.645.978,6.375,6.375,0,0,0,2.919.18c.892-.133,2.739-1.119,3.13-2.2a3.832,3.832,0,0,0,.227-2.293" transform="translate(-546.291 -231.39)" fill="#bcb4b4" fill-rule="evenodd"/>
  </g>
</svg>
